<svg version="1.0" xmlns="http://www.w3.org/2000/svg" width="316" height="316" viewBox="0 0 237 237"><path d="M1.2 1.2c-1.7 1.7-1.7 100.9 0 102.6 1.7 1.7 100.9 1.7 102.6 0 1.7-1.7 1.7-100.9 0-102.6C102.1-.5 2.9-.5 1.2 1.2zM29.7 15c2.2 1.3 3.6 3.2 4.4 6.1 1.8 5.8-.8 10.8-6.8 12.9-3.8 1.3-4.6 1.2-7.8-.3-2.2-1-4.2-3-5.2-5.2-1.5-3.2-1.6-4-.3-7.8 1.1-3.1 2.4-4.7 5-5.9 4.5-2.3 6.7-2.2 10.7.2zm26.8 27.4c8.9 3.8 7.9 16.9-1.5 19.7-5.4 1.6-10.3-.6-12.7-5.6-2.3-4.8-.5-10.8 4-13.5 3.8-2.4 5.7-2.5 10.2-.6zm27.7 30c2.4 1.1 5 5.5 5.5 9 .5 4.8-3.7 10.3-8.6 11.1-9 1.5-15.8-7.4-11.6-15.4 2.5-5 9.2-7.1 14.7-4.7zM1.2 132.2c-1.7 1.7-1.7 100.9 0 102.6 1.7 1.7 100.9 1.7 102.6 0 1.7-1.7 1.7-100.9 0-102.6-1.7-1.7-100.9-1.7-102.6 0zm81.6 13.7c6.5 3.5 6.3 14-.4 18.2-9.3 5.7-20.3-5.1-14.5-14.4 1.1-1.9 3.1-3.9 4.3-4.5 2.7-1.3 7.5-1 10.6.7zm-50.5 57.4c8.2 5.3 4.3 18.6-5.6 19.3-8.7.6-14.1-8.4-9.8-16.4 2.6-4.8 10.2-6.3 15.4-2.9zM133.2 132.2c-1.7 1.7-1.7 100.9 0 102.6 1.7 1.7 100.9 1.7 102.6 0 1.7-1.7 1.7-100.9 0-102.6-1.7-1.7-100.9-1.7-102.6 0zm31.1 14.1c1.5 1 3.1 3.4 3.8 5.6 3.6 12.1-12.5 19.3-19.1 8.6-2.4-3.9-2.5-6.6-.5-10.5 2.9-5.6 10.3-7.3 15.8-3.7zm50.4-.4c4.4 2.3 6.2 9.4 3.7 14.2-4.2 8.3-16.8 7-19.5-2-1-3.3-.9-4.5.7-7.7 2.9-6 9-7.8 15.1-4.5zM163 202.5c9.6 5 5.8 20.5-5 20.5-5.3 0-11-5.7-11-11 0-3.3 2.8-7.8 5.8-9.4 3.5-2 6.6-2 10.2-.1zm51.1.1c1.7.8 3.7 3 4.4 4.8 2.8 6.5 0 12.8-6.5 14.7-3.4 1-4.6 1-7.5-.4-7.8-3.7-8.3-15-.7-19.1 3.5-2 6.6-2 10.3 0z"/></svg>