<?xml version="1.0" standalone="no"?>
<!DOCTYPE svg PUBLIC "-//W3C//DTD SVG 20010904//EN"
 "http://www.w3.org/TR/2001/REC-SVG-20010904/DTD/svg10.dtd">
<svg version="1.0" xmlns="http://www.w3.org/2000/svg"
 width="237.000000pt" height="237.000000pt" viewBox="0 0 237.000000 237.000000"
 preserveAspectRatio="xMidYMid meet">
<metadata>
Created by potrace 1.11, written by Peter Selinger 2001-2013
</metadata>
<g transform="translate(0.000000,237.000000) scale(0.100000,-0.100000)"
fill="#000000" stroke="none">
<path d="M12 2358 c-17 -17 -17 -1009 0 -1026 17 -17 1009 -17 1026 0 17 17
17 1009 0 1026 -17 17 -1009 17 -1026 0z m285 -138 c22 -13 36 -32 44 -61 18
-58 -8 -108 -68 -129 -38 -13 -46 -12 -78 3 -22 10 -42 30 -52 52 -15 32 -16
40 -3 78 11 31 24 47 50 59 45 23 67 22 107 -2z m268 -274 c89 -38 79 -169
-15 -197 -54 -16 -103 6 -127 56 -23 48 -5 108 40 135 38 24 57 25 102 6z
m277 -300 c24 -11 50 -55 55 -90 5 -48 -37 -103 -86 -111 -90 -15 -158 74
-116 154 25 50 92 71 147 47z"/>
<path d="M12 1048 c-17 -17 -17 -1009 0 -1026 17 -17 1009 -17 1026 0 17 17
17 1009 0 1026 -17 17 -1009 17 -1026 0z m816 -137 c65 -35 63 -140 -4 -182
-93 -57 -203 51 -145 144 11 19 31 39 43 45 27 13 75 10 106 -7z m-505 -574
c82 -53 43 -186 -56 -193 -87 -6 -141 84 -98 164 26 48 102 63 154 29z"/>
<path d="M1332 1048 c-17 -17 -17 -1009 0 -1026 17 -17 1009 -17 1026 0 17 17
17 1009 0 1026 -17 17 -1009 17 -1026 0z m311 -141 c15 -10 31 -34 38 -56 36
-121 -125 -193 -191 -86 -24 39 -25 66 -5 105 29 56 103 73 158 37z m504 4
c44 -23 62 -94 37 -142 -42 -83 -168 -70 -195 20 -10 33 -9 45 7 77 29 60 90
78 151 45z m-517 -566 c96 -50 58 -205 -50 -205 -53 0 -110 57 -110 110 0 33
28 78 58 94 35 20 66 20 102 1z m511 -1 c17 -8 37 -30 44 -48 28 -65 0 -128
-65 -147 -34 -10 -46 -10 -75 4 -78 37 -83 150 -7 191 35 20 66 20 103 0z"/>
</g>
</svg>
